<?xml version="1.0" encoding="utf-8"?>
<!-- Generator: Adobe Illustrator 16.0.4, SVG Export Plug-In . SVG Version: 6.00 Build 0)  -->
<!DOCTYPE svg PUBLIC "-//W3C//DTD SVG 1.1//EN" "http://www.w3.org/Graphics/SVG/1.1/DTD/svg11.dtd">
<svg version="1.1" id="レイヤー_1" xmlns="http://www.w3.org/2000/svg" xmlns:xlink="http://www.w3.org/1999/xlink" x="0px"
	 y="0px" width="675.086px" height="129.203px" viewBox="0 0 675.086 129.203" enable-background="new 0 0 675.086 129.203"
	 xml:space="preserve">
<g>
	<path fill="#231815" d="M187.894,123.596l11.619-59.34l18.945,42.896l19.625-42.896l10.438,59.34h-8.543l-5.326-33.316
		l-16.336,35.854l-15.873-35.89l-5.934,33.352H187.894z"/>
	<path fill="#231815" d="M304.347,110.19h-23.629l-6.148,13.405h-8.973l27.311-58.661l26.346,58.661h-9.115L304.347,110.19z
		 M300.95,102.362l-8.186-18.767l-8.58,18.767H300.95z"/>
	<path fill="#231815" d="M366.249,94.855h22.807v1.823c0,4.146-0.488,7.817-1.467,11.01c-0.953,2.955-2.561,5.719-4.824,8.293
		c-5.125,5.768-11.643,8.651-19.555,8.651c-7.721,0-14.334-2.788-19.84-8.365c-5.504-5.6-8.258-12.32-8.258-20.161
		c0-8.007,2.801-14.799,8.4-20.376c5.602-5.6,12.416-8.4,20.449-8.4c4.312,0,8.34,0.882,12.082,2.645
		c3.574,1.764,7.09,4.624,10.545,8.58l-5.934,5.684c-4.529-6.029-10.045-9.044-16.551-9.044c-5.84,0-10.736,2.014-14.693,6.041
		c-3.955,3.957-5.934,8.914-5.934,14.871c0,6.148,2.205,11.212,6.613,15.192c4.123,3.694,8.592,5.541,13.406,5.541
		c4.098,0,7.779-1.382,11.045-4.146c3.266-2.788,5.088-6.125,5.469-10.009h-13.762V94.855z"/>
	<path fill="#231815" d="M443.665,110.19h-23.629l-6.148,13.405h-8.973l27.311-58.661l26.346,58.661h-9.115L443.665,110.19z
		 M440.269,102.362l-8.186-18.767l-8.58,18.767H440.269z"/>
	<path fill="#231815" d="M486.729,115.767h26.488v7.829h-40.18l27.096-47.365h-22.662v-7.829h36.354L486.729,115.767z"/>
	<path fill="#231815" d="M542.983,68.402v55.193h-8.328V68.402H542.983z"/>
	<path fill="#231815" d="M567.958,123.596V64.649l40.252,42.11V68.402h8.328v58.554l-40.25-42.003v38.643H567.958z"/>
	<path fill="#231815" d="M671.935,76.231h-22.127v13.262h21.484v7.829h-21.484v18.445h22.127v7.829h-30.455V68.402h30.455V76.231z"
		/>
</g>
<g>
	<path fill="#231815" d="M37.82,76.625l-6.756,4.004c-1.263-2.192-2.466-3.622-3.61-4.29c-1.192-0.763-2.729-1.144-4.611-1.144
		c-2.312,0-4.23,0.656-5.755,1.966c-1.525,1.287-2.288,2.908-2.288,4.862c0,2.693,2.002,4.861,6.005,6.506l5.505,2.252
		c4.48,1.812,7.757,4.021,9.831,6.631c2.073,2.609,3.11,5.809,3.11,9.598c0,5.076-1.692,9.271-5.076,12.583
		c-3.408,3.337-7.638,5.005-12.69,5.005c-4.79,0-8.746-1.417-11.868-4.254c-3.074-2.836-4.993-6.828-5.755-11.975l8.436-1.859
		c0.381,3.241,1.048,5.481,2.002,6.72c1.716,2.383,4.218,3.575,7.507,3.575c2.597,0,4.754-0.87,6.47-2.609
		c1.716-1.739,2.574-3.944,2.574-6.613c0-1.072-0.149-2.056-0.447-2.949c-0.298-0.894-0.763-1.716-1.394-2.466
		c-0.632-0.751-1.448-1.454-2.449-2.109c-1.001-0.655-2.193-1.281-3.575-1.876l-5.326-2.216C10.104,92.771,6.327,88.1,6.327,81.951
		c0-4.146,1.584-7.614,4.754-10.402c3.169-2.812,7.114-4.218,11.833-4.218C29.277,67.331,34.246,70.429,37.82,76.625z"/>
	<path fill="#231815" d="M70.802,68.403v47.365h16.229v7.829H62.473V68.403H70.802z"/>
	<path fill="#231815" d="M135.67,76.231h-19.232v13.262h18.553v7.829h-18.553v26.274h-8.329V68.403h27.561V76.231z"/>
</g>
<rect y="11.682" fill="#888888" width="10.5" height="35.689"/>
<rect x="22.439" fill="#888888" width="10.5" height="47.372"/>
<rect x="44.879" y="7.602" fill="#888888" width="10.5" height="39.77"/>
<rect x="67.318" y="11.682" fill="#888888" width="10.5" height="35.689"/>
<rect x="89.758" y="5.221" fill="#888888" width="10.5" height="42.151"/>
<rect x="113.973" y="11.682" fill="#888888" width="10.5" height="35.689"/>
<rect x="136.412" fill="#888888" width="10.5" height="47.372"/>
<rect x="158.852" y="7.602" fill="#888888" width="10.5" height="39.77"/>
<rect x="181.291" y="11.682" fill="#888888" width="10.5" height="35.689"/>
<rect x="203.73" y="5.221" fill="#888888" width="10.5" height="42.151"/>
<rect x="227.944" y="11.682" fill="#888888" width="10.5" height="35.689"/>
<rect x="250.384" fill="#888888" width="10.5" height="47.372"/>
<rect x="272.823" y="7.602" fill="#888888" width="10.5" height="39.77"/>
<rect x="295.263" y="11.682" fill="#888888" width="10.5" height="35.689"/>
<rect x="321.073" y="11.682" fill="#888888" width="10.5" height="35.689"/>
<rect x="343.513" fill="#888888" width="10.5" height="47.372"/>
<rect x="365.952" y="7.602" fill="#888888" width="10.5" height="39.77"/>
<rect x="388.392" y="11.682" fill="#888888" width="10.5" height="35.689"/>
<rect x="410.831" y="5.221" fill="#888888" width="10.5" height="42.151"/>
<rect x="435.046" y="11.682" fill="#888888" width="10.5" height="35.689"/>
<rect x="457.485" fill="#888888" width="10.5" height="47.372"/>
<rect x="479.925" y="7.602" fill="#888888" width="10.5" height="39.77"/>
<rect x="502.364" y="11.682" fill="#888888" width="10.5" height="35.689"/>
<rect x="524.804" y="5.221" fill="#888888" width="10.5" height="42.151"/>
<rect x="549.018" y="11.682" fill="#888888" width="10.5" height="35.689"/>
<rect x="571.457" fill="#888888" width="10.5" height="47.372"/>
<rect x="593.896" y="7.602" fill="#888888" width="10.5" height="39.77"/>
<rect x="616.336" y="11.682" fill="#888888" width="10.5" height="35.689"/>
<rect x="642.146" y="11.682" fill="#888888" width="10.5" height="35.689"/>
<rect x="664.586" fill="#888888" width="10.5" height="47.372"/>
<g>
</g>
<g>
</g>
<g>
</g>
<g>
</g>
<g>
</g>
<g>
</g>
</svg>
